<svg xmlns="http://www.w3.org/2000/svg" viewBox="0 0 194.64 194.65"><title>doctor</title><g id="Layer_2" data-name="Layer 2"><g id="Layer_1-2" data-name="Layer 1"><path d="M181.73,149.24c-4.45-13.05-13.38-21.38-26.82-24.59-10.57-2.52-21.18-4.81-31.8-7.1-1.44-.31-1.82-.87-1.78-2.25.08-3.42.13-6.85,0-10.26a3.46,3.46,0,0,1,1.92-3.45c13.34-8.81,21.18-21.11,22.29-37.12.63-9.21.37-18.49.29-27.74a26.48,26.48,0,0,0-6.56-17.2C129.91,8.43,118.13,1.8,103.62.34,85-1.52,69.21,4.2,56.55,18.15,52,23.14,49,28.88,48.91,35.68c-.18,9.25,0,18.5,0,27.75a24.15,24.15,0,0,0,.3,3.59c2.29,15.16,9.94,26.82,22.85,35.08a3,3,0,0,1,1.15,2.07c.11,3.8,0,7.6.08,11.4,0,1.32-.52,1.7-1.68,2C61.88,119.65,52.17,122,42.39,124,27.47,127,17.41,135.48,12.58,150Q6.66,167.91.7,185.79c-1.5,4.53-.7,6.58,3.47,8.86h3c2.43-1.05,3.7-3,4.52-5.46,3.83-11.76,7.91-23.44,11.66-35.22,3.32-10.42,10.23-16.56,20.88-18.62,1.41-.27,2.82-.58,4.35-.89.05.67.13,1.16.13,1.65,0,7.35,0,14.69,0,22a2,2,0,0,1-1.33,2.14c-7.13,3.22-11.53,10.43-10.84,17.58.8,8.41,6.14,14.49,14.43,16.45a2.84,2.84,0,0,1,.65.33H57.4c2.52-1.1,5.31-1.82,7.52-3.36A17.81,17.81,0,0,0,62,160.47a2.46,2.46,0,0,1-1.7-2.67q.09-12.08,0-24.13c0-1.3.17-2,1.73-2.28,4.21-.78,8.39-1.79,12.56-2.81a1.89,1.89,0,0,1,2.42,1.08q7.45,12.57,15,25.06c1.92,3.19,5,4.28,7.86,2.61a8.38,8.38,0,0,0,2.71-2.81Q110.1,142.3,117.38,130a2.3,2.3,0,0,1,3-1.3c4.1,1,8.23,2,12.38,2.77,1.2.24,1.53.72,1.51,1.88,0,4.12-.07,8.23,0,12.35,0,1.24-.43,1.69-1.57,2.1-8.38,3.09-14.17,8.65-16.17,17.59a26.35,26.35,0,0,0-.56,5.46c-.07,5.45.11,10.9-.07,16.34-.12,3.48,1,6,4.2,7.5h9.12c2.65-1.14,4.44-2.92,4.3-6s-2.1-4.85-5.81-5.54c0-5-.41-10,.11-15,.65-6.13,6.55-10.27,13.22-10a12.25,12.25,0,0,1,11.39,11c.26,4.16.13,8.35.17,12.53,0,.43,0,.87-.08,1.42-.46.07-.88.11-1.3.2a5.78,5.78,0,0,0-4.63,4.91,5.64,5.64,0,0,0,2.89,5.73c.36.21.69.47,1,.71h9.51c3.24-1.57,4.31-4.19,4.18-7.71-.18-5.19,0-10.39,0-15.58,0-11.25-6.37-20.1-17-23.75-.5-.18-1.25-.69-1.26-1.05-.09-4-.06-7.95-.06-11.94,10.82,1.22,20.48,5.36,24.77,17.75,4.21,12.16,8.21,24.4,12.19,36.64.83,2.55,2,4.59,4.57,5.64h3a7.68,7.68,0,0,0,4.18-4.18v-3a7,7,0,0,1-.4-.83C190.07,174.15,186,161.67,181.73,149.24ZM61,176.72a6.41,6.41,0,1,1-12.82,0,6.41,6.41,0,1,1,12.82,0ZM60.69,34.35a14.69,14.69,0,0,1,3.1-6.77c9.6-12.1,22.33-17.12,37.59-15.9,12.2,1,22.05,6.41,29.63,16a14.55,14.55,0,0,1,3.26,9.3c0,3.07,0,6.15,0,9.22l-.52.19c-2.48-2.53-4.92-5.1-7.45-7.59s-4.42-2.81-7.72-1.3q-21.26,9.73-42.52,0c-3.35-1.53-5.27-1.21-7.86,1.4s-4.91,5-7.65,7.84C60.55,42.24,60.18,38.24,60.69,34.35Zm49.17,85.31a2.13,2.13,0,0,1-.33,1.06c-4,6.68-8,13.35-12.19,20.38-.88-1.43-1.57-2.54-2.25-3.66-3.19-5.32-6.4-10.62-9.53-16a6,6,0,0,1-.77-2.82c-.09-3.65,0-7.31,0-11.12a50,50,0,0,0,25.13,0C109.88,111.7,109.89,115.68,109.86,119.66ZM88,96.38c-14.83-3.88-23.76-14-27.11-28.94-.25-1.11-.31-2.26-.48-3.38-.47-2.89.16-4.63,3.28-6.15,3.4-1.65,6.14-4.75,9-7.37a2.58,2.58,0,0,1,3.12-.7,59.49,59.49,0,0,0,42.78.07,2.57,2.57,0,0,1,3.28.68c3.46,3.69,6.95,7.43,12.32,8.84.27,9.46-2.44,17.81-8.51,24.82C115.69,95.86,102.89,100.27,88,96.38Z"/></g></g></svg>