<?xml version="1.0" encoding="utf-8"?>
<!-- Generator: Adobe Illustrator 22.0.1, SVG Export Plug-In . SVG Version: 6.00 Build 0)  -->
<svg version="1.1" id="Layer_1" xmlns="http://www.w3.org/2000/svg" xmlns:xlink="http://www.w3.org/1999/xlink" x="0px" y="0px"
	 viewBox="0 0 187.1 187.1" style="enable-background:new 0 0 187.1 187.1;" xml:space="preserve">
<style type="text/css">
	.st0{fill:#FFFFFF;}
</style>
<title>patient</title>
<g>
	<path class="st0" d="M88.1,92.1c0,0.4,0.2,0.7,0.5,1c1.7,1.3,3.3,2.6,5,3.8c0.3,0.2,0.7,0.2,1.1,0c1.7-1.2,3.4-2.6,5.1-3.9
		c0.2-0.2,0.4-0.4,0.5-0.7c0-0.9,0-1.9,0-3c-3.9,1.5-8.3,1.5-12.3,0C88.1,90.4,88.1,91.2,88.1,92.1z"/>
	<path class="st0" d="M93.8,87c6.9,0.3,12.6-5.1,12.7-11.5c0.1-4,0.1-8,0.1-12.1c0-0.3-0.1-0.6-0.2-0.8c-1.2-1.4-2.5-2.7-3.8-4.1
		c-9.9,4.8-9.9,4.8-20.7,5.6c0,3.5,0,7,0,10.5C81.9,81.5,86.9,86.6,93.8,87z"/>
	<path class="st0" d="M90,120.7l5.5-10.2c2.9-5.2,5.7-10.4,8.5-15.7c0.1-0.3,0.2-0.6,0.2-1H104c-0.4,0.5-0.8,0.9-1.2,1.3
		c-2.3,1.8-4.7,3.6-7.1,5.4c-1.2,0.9-1.8,0.9-3.1,0c-2.2-1.7-4.4-3.4-6.6-5c-0.7-0.5-1.4-0.9-2.1-1.3l0.5-0.6l-3.8,1.4
		c2.9,8.9,5.8,17.7,8.7,26.6C89.6,121.3,89.9,121,90,120.7z"/>
	<path class="st0" d="M110.2,73.3c1.9-0.1,3.4-1.6,3.4-3.5c0-1.9-1.5-3.5-3.4-3.6V73.3z"/>
	<path class="st0" d="M68.9,130.8C68.9,130.8,68.8,130.8,68.9,130.8c-1,0-1.8-0.8-1.8-1.7c0,0,0-0.1,0-0.1c0-1,0.8-1.7,1.8-1.7
		c0.8,0,1.7,0,2.6,0c-0.6-9.5-1.2-18.8-1.8-28.3c-2,0.8-3.9,1.3-5.7,2.2c-2.3,1-3.9,3-4.5,5.5c-0.6,2.4-1,4.8-1.3,7.2
		c-0.9,6.1-1.9,12.2-2.7,18.3c-0.3,1.8-0.4,3.5-0.3,5.3c0.2,2.9,1.8,4.2,4.7,4.2c3.9,0,7.8,0,11.6,0c0.3,0,0.6,0,0.9-0.1
		c-0.2-3.6-0.4-7.1-0.7-10.7C70.7,130.8,69.8,130.8,68.9,130.8z"/>
	<path class="st0" d="M75,70c0,1.8,1.5,3.3,3.3,3.4v-7.1C76.1,66.6,74.9,68,75,70z"/>
	<path class="st0" d="M85.3,60.5c5.7-0.4,11.3-2.3,16.1-5.5c1.4-0.9,2-0.8,3.2,0.4c1.4,1.5,2.8,3,4.2,4.5c0.6,0.8,1.2,1.7,1.8,2.5
		l-0.2,0.2l1.1,0.1c0.7-7.5-1.4-13.8-7.8-18.1c-5.8-3.8-13.3-3.7-18.9,0.2c-6.2,4.4-8.1,10.5-7.4,17.8c0.6,0.1,1,0.2,1.2-0.6
		c0.3-1.4,0.8-1.7,2.2-1.7C82.1,60.4,83.7,60.6,85.3,60.5z"/>
	<path class="st0" d="M73.9,94.4c-0.7,0.2-0.9,0.6-0.9,1.3c0.3,3.4,0.4,6.9,0.7,10.3c0.3,5,0.6,10,0.9,14.9
		c0.4,6.4,0.8,12.9,1.2,19.3c0.1,1.6,0.2,3.3,0.4,4.9h17.1c-5.6-17.2-11.3-34.4-16.9-51.7C75.5,93.9,74.7,94.2,73.9,94.4z"/>
	<path class="st0" d="M92.3,130.9c1.1,3.3,2.1,6.5,3.2,9.7l0.2,0l0-9.6H92.3z"/>
	<path class="st0" d="M93.5,0.3C42,0.3,0.3,42,0.3,93.5c0,51.5,41.8,93.3,93.3,93.3c51.5,0,93.3-41.8,93.3-93.3
		C186.8,42,145,0.3,93.5,0.3z M134.5,148.7H105c-2-0.6-4-1.2-5.5-2.8c-0.6-0.7-1.5-0.9-2.4-0.6c0.6,1.3,0.7,2.5-0.7,3.4H73.9
		c-1.4-0.8-1.2-2.2-1.3-3.5c-0.9,0-1.8,0-2.6,0c-3.7,0-7.5,0-11.2-0.2c-3.9-0.2-6.3-2.9-7.1-6.5c-0.5-2.5-0.1-5,0.3-7.5
		c0.9-6.1,1.8-12.1,2.7-18.2c0.4-2.4,0.8-4.8,1.4-7.2c1-3.9,3.5-6.5,7.1-8.1c1.7-0.7,3.5-1.3,5.3-1.9c0.5-0.1,0.9-0.6,0.8-1.1
		c0-2.2,0-2.3,2.1-3l4.8-1.7c1.8-0.6,2.4-0.3,3.1,1.5c0.1,0.2,0.2,0.3,0.3,0.5c1.5-0.6,3-1.1,4.5-1.6c0.2-0.1,0.3-0.2,0.4-0.3
		c0.4-0.8-0.1-2.5-0.8-3.2c-2.6-2.3-4.4-5.4-5-8.8c0,0,0,0,0,0c0-0.5-0.4-0.9-0.9-0.9c-2.6-0.2-4.9-1.9-5.8-4.4
		c-1-2.5-0.6-4.9,1-7.1c0.3-0.5,0.5-1,0.6-1.6c0.1-3.5-0.1-6.9,0.8-10.4c2.1-7.7,9.1-13.7,17-14.8c10.8-1.5,21.1,5.7,23.1,16.4
		c0.5,2.9,0.3,5.9,0.5,8.8c0,0.6,0.2,1.1,0.5,1.5c1.7,2.3,2.1,4.7,1,7.3c-1,2.5-3.3,4.2-5.9,4.3L110,77c-0.5,3.4-2.1,6.6-4.5,9
		c-0.2,0.2-0.4,0.4-0.7,0.6c-1.4,0.8-0.9,2.1-0.9,3.2c0,0.1,0.2,0.3,0.4,0.4c0.6,0.3,1.3,0.5,2,0.7c0.1-0.2,0.3-0.4,0.4-0.5
		c0.7-1.1,1.4-1.4,2.6-0.9c2,0.7,4,1.5,5.9,2.2c1.7,0.6,2,1.1,1.7,3c2.2,0.8,4.5,1.5,6.7,2.4c5.8,2.3,10.1,6.2,11.6,12.6
		c0.3,1.3,0.4,2.6,0.4,3.9c0,10.9,0,21.8,0,32.7C135.6,147.3,135.3,148.1,134.5,148.7z"/>
	<path class="st0" d="M127.1,103c-2.4-2-5.3-2.9-8.1-3.9c-1.1-0.4-2.2-0.8-3.4-1.2c-1.2,3.6-2.4,7.1-3.6,10.6
		c-0.2,0.5-0.4,1-0.6,1.5c-0.3,0.7-1.1,1-1.8,0.7c-0.6-0.4-1-0.9-1.3-1.5c-0.1-0.3,0.1-0.9,0.3-1.3c1.4-4.1,2.8-8.3,4.2-12.4
		c0.2-0.6,0.2-0.9-0.5-1.1c-1.1-0.3-2.1-0.8-3.2-1.2c-6.1,11-12,21.9-18,32.8c-0.5,0.9-0.2,1.4,0.9,1.4c2.9,0,5.9,0,8.8,0
		c0,0,0,0,0,0c0.6,0.1,1.2-0.3,1.3-0.9c1.4-4.2,2.8-8.3,4.3-12.5c0.1-0.2,0.1-0.5,0.2-0.7c0.5-1.1,1.3-1.5,2.3-1.2s1.4,1.3,1,2.4
		c-0.8,2.3-1.6,4.7-2.4,7c-0.7,1.9-1.3,3.8-2,5.9c4.7-0.1,8.4,1.7,10.5,5.9c2.1,4.2,1.4,8.2-1.4,11.9h4.1v-1.4c0-7.3,0-14.5,0-21.8
		c0-0.5,0-0.9,0.1-1.4c0.1-0.8,0.8-1.5,1.6-1.4c0.9,0,1.6,0.6,1.8,1.4c0.1,0.4,0.1,0.8,0.1,1.2c0,7.4,0,14.7,0,22.1v1.2h9.6
		c0-0.2,0.1-0.4,0.1-0.6v0c0-10.4,0-20.9,0-31.3C132.1,109,130.3,105.7,127.1,103z"/>
	<path class="st0" d="M108.2,131.1c-2.9-0.3-5.8-0.1-8.8-0.1v10.2c0.7,0.5,1.3,1,2,1.5c1.3,1.4,3.1,2.3,5.1,2.4c4,0.1,7.3-3,7.4-6.9
		C113.9,134.9,111.4,131.5,108.2,131.1z"/>
</g>
</svg>
