<svg xmlns="http://www.w3.org/2000/svg" viewBox="0 0 420.53 101.19"><defs><style>.cls-1{fill:#8e7673;}.cls-2{fill:#8f7674;}.cls-3{fill:#8f7673;}.cls-4{fill:#8f7774;}.cls-5{fill:#917976;}.cls-6{fill:#ba1818;}.cls-7{fill:#52822f;}</style></defs><title>stessis_original</title><g id="Layer_2" data-name="Layer 2"><g id="Layer_1-2" data-name="Layer 1"><path class="cls-1" d="M235.17,90.12c-16.43.28-18.16-1.71-16.61-17.92,1.41-14.73,1.82-29.45-.38-44.21-1.83-12.25.9-15.08,13.42-15.75,3.88-.21,7.76-.77,11.63-.8,4.36,0,9,.08,9.29,6.17s-4.3,7.16-8.67,6.83c-9-.68-13.79,1.7-12.87,12.08.55,6.28.94,10.71,8.8,9.85,3.82-.42,7,.74,7.13,5.53.17,5-3.24,5.7-7,5.63-11.53-.23-7.21,8.44-8,14.16-1,7.08,3.72,6.92,8.77,7.19,4.77.24,12.8-2.94,12.23,5.86-.52,7.85-8.32,4.44-13.13,5.33A25.86,25.86,0,0,1,235.17,90.12Z"/><path class="cls-2" d="M420.53,69.54c-1.52,9.56-4.35,18.32-14.88,20.3-8.94,1.69-15.86-2.74-20.27-10.58-1.69-3-3.71-7,.11-9.33,3.15-1.89,7.39-2.49,10.26,1.85,2.3,3.48,4.83,8.48,9.88,4.72,5.22-3.87,3.06-9.56.06-13.59-5.32-7.14-12.29-13.1-17.23-20.46-8.91-13.28-3.28-27.57,11.51-30.73,8.8-1.88,15.23,1.58,18.85,9.81,1.37,3.13,3.3,6.9-1.11,9.14-3.26,1.66-6.72,1.54-9.56-1.59-2.28-2.5-3.51-8.74-8.42-4.46-3.88,3.37-3.13,8.93-.67,13,2.13,3.55,5.71,6.26,8.75,9.24C414.35,53.26,419.71,60.25,420.53,69.54Z"/><path class="cls-3" d="M301.56,71.14c-.46,7.78-3.63,16.13-14,18.59-9,2.15-16-2.3-20.69-9.89-1.85-3-4.82-7.41,0-10.21,3.43-2,7.52-1.65,10.32,2.36,2.39,3.44,4.91,8.45,9.92,4.51,4.39-3.46,3.11-8.78.32-12.76C284.12,59,280,54.81,276.06,50.49c-5.6-6.18-10.67-12.57-10.17-21.58s5.77-14.27,13.94-16.73,14.55.89,19.42,7.25c2.45,3.2,4,7.33.18,10.47-3.45,2.87-7.18,2.27-10.24-1.4-2-2.45-3.47-7.53-7.82-4.33s-4.2,8.5-1.05,12.57c4.27,5.52,9.49,10.3,14,15.65C298.38,57.21,301.64,62.54,301.56,71.14Z"/><path class="cls-4" d="M332.31,10.91c7,.68,12.78,3.35,15.5,10.36,1.26,3.24,2.41,7.17-1.92,9.11-3.18,1.43-6.72,2.18-9.43-1.54-1.8-2.47-2.41-8-7.23-4.73-3.55,2.44-3,7-1.93,10.84,1.83,6.37,7.39,9.89,11.79,14.2,7.79,7.63,12.14,16.36,8.93,27.33-2.25,7.66-7.23,13.11-15.67,13.64-8.24.51-14.19-3.6-17.64-11-1.43-3.06-3.8-7-.13-9.47,3.3-2.17,7.5-1.81,10.21,2.22,2.39,3.56,4.83,8.3,9.89,4.29,4.54-3.6,2.54-8.51.42-12.8-3.56-7.17-10.72-11.26-15.34-17.51-5.28-7.15-9.1-14.77-4.37-23.78C318.92,15.32,324.73,11.86,332.31,10.91Z"/><path class="cls-3" d="M141.77,11c7.34.54,12.76,3.76,15.6,10.58,1.36,3.25,2.91,7-1.64,9-3.2,1.35-6.73,2-9.39-1.79-1.8-2.55-2.92-7.8-7.49-4.65-4,2.77-3.56,7.47-1.73,11.73,2.73,6.34,8.66,9.91,13,14.82,7.19,8.07,11.48,16.82,7,27.69-2.89,6.94-7.74,11.92-15.78,11.84S127.28,85.79,124,78.45c-1.16-2.58-3.67-6.22-.37-8.47s7.46-2.36,10.57,1.14c2.88,3.23,5,9.73,10.49,5,5-4.34,2.57-10.35-.94-14.78-5.07-6.39-11.18-12-16.19-18.38C122.68,36.72,121.38,29.4,125,22,128.37,15.14,134.59,12.15,141.77,11Z"/><path class="cls-4" d="M183.7,56.07c0-6.21.14-12.43,0-18.64s.46-12.81-9.13-12.78c-4.65,0-4.95-4.24-4.65-7.87s2.72-5.59,6.29-5.43c8.53.4,17.05,1,25.56,1.61,3.49.26,5.84,2,6,5.82.16,3.59-1.27,6.09-5.15,6.35-7.08.47-7.38,5.14-7.25,10.69.32,13.2.58,26.41.24,39.6-.13,5.26,2.34,14.11-5.69,14.1-9,0-5.74-9.23-6.24-14.82-.55-6.16-.13-12.41-.13-18.63Z"/><path class="cls-5" d="M372.35,50.82q0,15.13,0,30.26c0,4.69-1,9-6.73,8.8-5.21-.14-5.75-4.45-5.74-8.48.09-20.56.31-41.12.38-61.68,0-4.45,1.22-8,6.19-7.94,4.74.06,5.05,4,5.06,7.63,0,10.47,0,20.94,0,31.41Z"/><path class="cls-3" d="M50.59,101.19a50.6,50.6,0,1,1,50.6-50.6A50.66,50.66,0,0,1,50.59,101.19ZM50.59.31a50.28,50.28,0,1,0,50.28,50.28A50.34,50.34,0,0,0,50.59.31Z"/><path class="cls-3" d="M51.58,96.77A48.39,48.39,0,1,1,100,48.38,48.44,48.44,0,0,1,51.58,96.77Zm0-96.46A48.08,48.08,0,1,0,99.65,48.38,48.13,48.13,0,0,0,51.58.31Z"/><path class="cls-3" d="M49.36,96.77A46.17,46.17,0,1,1,95.53,50.6,46.22,46.22,0,0,1,49.36,96.77Zm0-92A45.86,45.86,0,1,0,95.22,50.6,45.91,45.91,0,0,0,49.36,4.74Z"/><polygon class="cls-6" points="57.37 48.94 48.54 48.94 48.54 40.11 42.87 40.11 42.87 48.94 34.04 48.94 34.04 54.61 42.87 54.61 42.87 63.44 48.54 63.44 48.54 54.61 57.37 54.61 57.37 48.94"/><path class="cls-7" d="M79.84,26.41a7.37,7.37,0,0,0-5.46-3.1A1.89,1.89,0,1,0,73,26.46a1.82,1.82,0,0,0,1-.3A4.48,4.48,0,0,1,77.42,28c1.07,1.59,1.07,4,0,6.57L71.85,48c-1,2.53-2.19,3.34-3,3.42s-1.93-.91-3-3.46L60.55,34.67c-1-2.6-1-5,.05-6.63a4.6,4.6,0,0,1,3.69-1.89,1.87,1.87,0,0,0,1,.31,1.9,1.9,0,1,0-1.38-3.17,7.41,7.41,0,0,0-5.7,3.13c-1.64,2.42-1.76,5.82-.35,9.34l5.37,13.3c1.21,3,2.68,4.31,3.92,4.88A21.8,21.8,0,0,1,32.74,71a1.74,1.74,0,0,0-2.2.15c-1.26,1.19-3.82,3.09-5.56,3a1.24,1.24,0,0,1-1-.44,1.29,1.29,0,0,1-.36-1c.1-1.61,2.09-3.9,3.33-5a1.74,1.74,0,0,0,.3-2.29,21.81,21.81,0,0,1,16.2-33.93,5.06,5.06,0,1,0-.83-3.42,25.3,25.3,0,0,0-19,38.06c-1.3,1.35-3.28,3.8-3.43,6.33a4.84,4.84,0,0,0,4.67,5.15c2.72.11,5.5-1.8,7-3A25.29,25.29,0,0,0,70.63,53.94c1.23-.57,2.69-1.88,3.9-4.81L80.1,35.71C81.54,32.22,81.45,28.83,79.84,26.41Z"/></g></g></svg>