<?xml version="1.0" encoding="utf-8"?>
<!-- Generator: Adobe Illustrator 22.0.1, SVG Export Plug-In . SVG Version: 6.00 Build 0)  -->
<svg version="1.1" id="Layer_1" xmlns="http://www.w3.org/2000/svg" xmlns:xlink="http://www.w3.org/1999/xlink" x="0px" y="0px"
	 viewBox="0 0 194.6 194.6" style="enable-background:new 0 0 194.6 194.6;" xml:space="preserve">
<style type="text/css">
	.st0{fill:#FFFFFF;}
</style>
<title>doctor_1</title>
<g>
	<path class="st0" d="M90.7,102.7c0,2,0,4,0,5.9c0,0.5,0.2,1,0.4,1.5c1.7,2.9,3.4,5.7,5.1,8.5c0.4,0.6,0.7,1.2,1.2,1.9
		c2.2-3.7,4.4-7.3,6.5-10.8c0.1-0.2,0.2-0.4,0.2-0.6c0-2.1,0-4.2,0-6.5C99.7,103.9,95.1,103.9,90.7,102.7z"/>
	<circle class="st0" cx="74.6" cy="139.5" r="3.4"/>
	<path class="st0" d="M81.9,66.3c1.4-1.4,2.4-1.6,4.2-0.7c7.5,3.4,15.1,3.4,22.6,0c1.8-0.8,2.8-0.6,4.1,0.7s2.6,2.7,4,4l0.3-0.1
		c0-1.6,0-3.3,0-4.9c0-1.8-0.6-3.5-1.7-4.9c-4-5.1-9.3-8-15.8-8.5c-8.1-0.6-14.9,2-20,8.5c-0.8,1-1.4,2.3-1.6,3.6
		c-0.3,2.1-0.1,4.2-0.1,6.6C79.2,68.9,80.5,67.6,81.9,66.3z"/>
	<path class="st0" d="M112.4,90.4c3.2-3.7,4.7-8.2,4.5-13.2c-2.9-0.7-4.7-2.7-6.6-4.7c-0.4-0.5-1.2-0.7-1.7-0.4
		c-7.3,2.8-15.4,2.8-22.7,0c-0.6-0.3-1.3-0.1-1.7,0.4c-1.5,1.4-3,3-4.8,3.9c-1.7,0.8-2,1.7-1.7,3.3c0.1,0.6,0.1,1.2,0.3,1.8
		c1.8,7.9,6.5,13.3,14.4,15.4C100.3,98.9,107.1,96.5,112.4,90.4z"/>
	<path class="st0" d="M97.3,4.1C45.8,4.1,4.1,45.8,4.1,97.3c0,51.5,41.8,93.3,93.3,93.3c51.5,0,93.3-41.8,93.3-93.3
		C190.6,45.8,148.8,4.1,97.3,4.1z M149,146.8c-0.4,1-1.2,1.8-2.2,2.2h-1.6c-1.4-0.6-2-1.6-2.4-3c-2.1-6.5-4.2-13-6.5-19.5
		c-2.3-6.6-7.4-8.8-13.2-9.4c0,2.1,0,4.2,0,6.3c0,0.2,0.4,0.5,0.7,0.6c5.7,1.9,9,6.6,9,12.6c0,2.8-0.1,5.5,0,8.3
		c0.1,1.9-0.5,3.3-2.2,4.1h-5.1c-0.2-0.1-0.3-0.3-0.5-0.4c-1.1-0.6-1.7-1.8-1.5-3c0.2-1.3,1.2-2.4,2.5-2.6c0.2,0,0.4-0.1,0.7-0.1
		c0-0.3,0-0.5,0-0.8c0-2.2,0-4.5-0.1-6.7c-0.3-3.2-2.9-5.6-6.1-5.8c-3.5-0.1-6.7,2.1-7,5.3c-0.3,2.7-0.1,5.3-0.1,8
		c2,0.4,3,1.3,3.1,2.9c0.1,1.6-0.9,2.6-2.3,3.2h-4.8c-1.7-0.8-2.3-2.1-2.2-4c0.1-2.9,0-5.8,0-8.7c0-1,0.1-1.9,0.3-2.9
		c1.1-4.8,4.1-7.7,8.6-9.4c0.6-0.2,0.8-0.5,0.8-1.1c0-2.2,0-4.4,0-6.6c0-0.6-0.2-0.9-0.8-1c-2.2-0.4-4.4-0.9-6.6-1.5c0,0,0,0,0,0
		c-0.6-0.2-1.3,0.1-1.6,0.7c-2.6,4.4-5.2,8.7-7.9,13c-0.4,0.6-0.8,1.1-1.4,1.5c-1.5,0.9-3.2,0.3-4.2-1.4c-2.7-4.4-5.3-8.9-8-13.3
		c-0.2-0.5-0.8-0.8-1.3-0.6c-2.2,0.5-4.4,1.1-6.7,1.5c-0.8,0.1-0.9,0.5-0.9,1.2c0,4.3,0,8.5,0,12.8c-0.1,0.6,0.3,1.2,0.9,1.4
		c1.5,0.7,2.9,1.8,3.8,3.2c3,4.3,2,10.2-2.3,13.2c-1.2,0.8-2.7,1.2-4,1.8H73c-0.1-0.1-0.2-0.1-0.3-0.2c-4.4-1-7.2-4.3-7.7-8.7
		c-0.4-3.8,2-7.6,5.8-9.3c0.5-0.2,0.8-0.6,0.7-1.1c0-3.9,0-7.8,0-11.7c0-0.3,0-0.5-0.1-0.9c-0.8,0.2-1.6,0.3-2.3,0.5
		c-5.7,1.1-9.3,4.4-11.1,9.9c-2,6.3-4.2,12.5-6.2,18.7c-0.4,1.3-1.1,2.3-2.4,2.9h-1.6c-2.2-1.2-2.6-2.3-1.8-4.7
		c2.1-6.3,4.2-12.7,6.3-19c2.6-7.7,7.9-12.2,15.8-13.8c5.2-1.1,10.4-2.3,15.5-3.4c0.6-0.2,0.9-0.4,0.9-1.1c0-2,0-4,0-6.1
		c0-0.4-0.3-0.8-0.6-1.1C77,95.5,73,89.3,71.8,81.2c-0.1-0.6-0.2-1.3-0.2-1.9c0-4.9-0.1-9.8,0-14.8c0-3.6,1.6-6.7,4.1-9.3
		c6.7-7.4,15.1-10.5,25-9.5c7.7,0.8,14,4.3,19,10.2c2.2,2.5,3.5,5.8,3.5,9.1c0,4.9,0.2,9.9-0.2,14.7c-0.6,8.5-4.8,15.1-11.9,19.7
		c-0.7,0.3-1.1,1.1-1,1.8c0.1,1.8,0,3.6,0,5.5c0,0.7,0.2,1,0.9,1.2c5.6,1.2,11.3,2.4,16.9,3.8c7.1,1.7,11.9,6.1,14.3,13.1
		c2.3,6.6,4.4,13.2,6.6,19.9c0.1,0.2,0.1,0.3,0.2,0.4V146.8z"/>
</g>
</svg>
